<!DOCTYPE svg PUBLIC "-//W3C//DTD SVG 1.1//EN" "http://www.w3.org/Graphics/SVG/1.1/DTD/svg11.dtd">
<svg xmlns="http://www.w3.org/2000/svg" xmlns:xlink="http://www.w3.org/1999/xlink" version="1.1" width="612px" height="188px" viewBox="-0.5 -0.5 612 188"><defs><clipPath id="mx-clip-34-76-122-30-0"><rect x="34" y="76" width="122" height="30"/></clipPath><clipPath id="mx-clip-4-76-22-30-0"><rect x="4" y="76" width="22" height="30"/></clipPath><clipPath id="mx-clip-34-111-122-26-0"><rect x="34" y="111" width="122" height="26"/></clipPath><clipPath id="mx-clip-34-137-122-26-0"><rect x="34" y="137" width="122" height="26"/></clipPath><clipPath id="mx-clip-4-137-22-26-0"><rect x="4" y="137" width="22" height="26"/></clipPath><clipPath id="mx-clip-34-163-122-26-0"><rect x="34" y="163" width="122" height="26"/></clipPath><clipPath id="mx-clip-264-26-122-30-0"><rect x="264" y="26" width="122" height="30"/></clipPath><clipPath id="mx-clip-234-26-22-30-0"><rect x="234" y="26" width="22" height="30"/></clipPath><clipPath id="mx-clip-264-61-122-26-0"><rect x="264" y="61" width="122" height="26"/></clipPath><clipPath id="mx-clip-234-61-22-26-0"><rect x="234" y="61" width="22" height="26"/></clipPath><clipPath id="mx-clip-264-87-122-26-0"><rect x="264" y="87" width="122" height="26"/></clipPath><clipPath id="mx-clip-484-106-122-30-0"><rect x="484" y="106" width="122" height="30"/></clipPath><clipPath id="mx-clip-454-106-22-30-0"><rect x="454" y="106" width="22" height="30"/></clipPath><clipPath id="mx-clip-484-141-122-26-0"><rect x="484" y="141" width="122" height="26"/></clipPath></defs><g><path d="M 160 119 L 180 119 Q 190 119 191.27 109.08 L 198.73 50.92 Q 200 41 210 41 L 230 41" fill="none" stroke="#000000" stroke-miterlimit="10" pointer-events="stroke"/><ellipse cx="172" cy="119" rx="3" ry="3" fill="#ffffff" stroke="#000000" pointer-events="all"/><path d="M 160 123 L 168 119 L 160 115" fill="none" stroke="#000000" stroke-miterlimit="10" pointer-events="all"/><path d="M 226 45 L 226 37 M 222 45 L 222 37" fill="none" stroke="#000000" stroke-miterlimit="10" pointer-events="all"/><path d="M 0 76 L 0 50 L 160 50 L 160 76" fill="#ffcc99" stroke="#000000" stroke-miterlimit="10" pointer-events="all"/><path d="M 0 76 L 0 184 L 160 184 L 160 76" fill="none" stroke="#000000" stroke-miterlimit="10" pointer-events="none"/><path d="M 0 76 L 160 76" fill="none" stroke="#000000" stroke-miterlimit="10" pointer-events="none"/><g fill="#000000" font-family="Helvetica" text-anchor="middle" font-size="14px"><text x="79.5" y="68.5">Sales</text></g><path d="M 0 76 M 160 76 M 160 106 L 0 106" fill="none" stroke="#000000" stroke-miterlimit="10" pointer-events="none"/><g fill="#000000" font-family="Helvetica" font-weight="bold" text-decoration="underline" clip-path="url(#mx-clip-34-76-122-30-0)" font-size="12px"><text x="35.5" y="95.5">sales_id</text></g><path d="M 0 76 M 30 76 L 30 106 M 0 106" fill="none" stroke="#000000" stroke-miterlimit="10" pointer-events="none"/><g fill="#000000" font-family="Helvetica" clip-path="url(#mx-clip-4-76-22-30-0)" font-size="12px"><text x="5.5" y="95.5">PK</text></g><path d="M 0 106 M 160 106 M 160 132 M 0 132" fill="none" stroke="#000000" stroke-miterlimit="10" pointer-events="none"/><g fill="#000000" font-family="Helvetica" clip-path="url(#mx-clip-34-111-122-26-0)" font-size="12px"><text x="35.5" y="123.5">...</text></g><path d="M 0 106 M 30 106 L 30 132 M 0 132" fill="none" stroke="#000000" stroke-miterlimit="10" pointer-events="none"/><path d="M 0 132 M 160 132 M 160 158 M 0 158" fill="none" stroke="#000000" stroke-miterlimit="10" pointer-events="none"/><g fill="#000000" font-family="Helvetica" clip-path="url(#mx-clip-34-137-122-26-0)" font-size="12px"><text x="35.5" y="149.5">selling_item_id</text></g><path d="M 0 132 M 30 132 L 30 158 M 0 158" fill="none" stroke="#000000" stroke-miterlimit="10" pointer-events="none"/><g fill="#000000" font-family="Helvetica" clip-path="url(#mx-clip-4-137-22-26-0)" font-size="12px"><text x="5.5" y="149.5">FK</text></g><path d="M 0 158 M 160 158 M 160 184 M 0 184" fill="none" stroke="#000000" stroke-miterlimit="10" pointer-events="none"/><g fill="#000000" font-family="Helvetica" clip-path="url(#mx-clip-34-163-122-26-0)" font-size="12px"><text x="35.5" y="175.5">...</text></g><path d="M 0 158 M 30 158 L 30 184 M 0 184" fill="none" stroke="#000000" stroke-miterlimit="10" pointer-events="none"/><path d="M 230 26 L 230 0 L 390 0 L 390 26" fill="#99ff99" stroke="#000000" stroke-miterlimit="10" pointer-events="none"/><path d="M 230 26 L 230 108 L 390 108 L 390 26" fill="none" stroke="#000000" stroke-miterlimit="10" pointer-events="none"/><path d="M 230 26 L 390 26" fill="none" stroke="#000000" stroke-miterlimit="10" pointer-events="none"/><g fill="#000000" font-family="Helvetica" text-anchor="middle" font-size="14px"><text x="309.5" y="18.5">SellingItem</text></g><path d="M 230 26 M 390 26 M 390 56 L 230 56" fill="none" stroke="#000000" stroke-miterlimit="10" pointer-events="none"/><g fill="#000000" font-family="Helvetica" font-weight="bold" text-decoration="underline" clip-path="url(#mx-clip-264-26-122-30-0)" font-size="12px"><text x="265.5" y="45.5">selling_item_id</text></g><path d="M 230 26 M 260 26 L 260 56 M 230 56" fill="none" stroke="#000000" stroke-miterlimit="10" pointer-events="none"/><g fill="#000000" font-family="Helvetica" clip-path="url(#mx-clip-234-26-22-30-0)" font-size="12px"><text x="235.5" y="45.5">PK</text></g><path d="M 230 56 M 390 56 M 390 82 M 230 82" fill="none" stroke="#000000" stroke-miterlimit="10" pointer-events="none"/><g fill="#000000" font-family="Helvetica" clip-path="url(#mx-clip-264-61-122-26-0)" font-size="12px"><text x="265.5" y="73.5">product_id</text></g><path d="M 230 56 M 260 56 L 260 82 M 230 82" fill="none" stroke="#000000" stroke-miterlimit="10" pointer-events="none"/><g fill="#000000" font-family="Helvetica" clip-path="url(#mx-clip-234-61-22-26-0)" font-size="12px"><text x="235.5" y="73.5">FK</text></g><path d="M 230 82 M 390 82 M 390 108 M 230 108" fill="none" stroke="#000000" stroke-miterlimit="10" pointer-events="none"/><g fill="#000000" font-family="Helvetica" clip-path="url(#mx-clip-264-87-122-26-0)" font-size="12px"><text x="265.5" y="99.5">price</text></g><path d="M 230 82 M 260 82 L 260 108 M 230 108" fill="none" stroke="#000000" stroke-miterlimit="10" pointer-events="none"/><path d="M 450 106 L 450 80 L 610 80 L 610 106" fill="#99ff99" stroke="#000000" stroke-miterlimit="10" pointer-events="none"/><path d="M 450 106 L 450 162 L 610 162 L 610 106" fill="none" stroke="#000000" stroke-miterlimit="10" pointer-events="none"/><path d="M 450 106 L 610 106" fill="none" stroke="#000000" stroke-miterlimit="10" pointer-events="none"/><g fill="#000000" font-family="Helvetica" text-anchor="middle" font-size="14px"><text x="529.5" y="98.5">Product</text></g><path d="M 450 106 M 610 106 M 610 136 L 450 136" fill="none" stroke="#000000" stroke-miterlimit="10" pointer-events="none"/><g fill="#000000" font-family="Helvetica" font-weight="bold" text-decoration="underline" clip-path="url(#mx-clip-484-106-122-30-0)" font-size="12px"><text x="485.5" y="125.5">product_id</text></g><path d="M 450 106 M 480 106 L 480 136 M 450 136" fill="none" stroke="#000000" stroke-miterlimit="10" pointer-events="none"/><g fill="#000000" font-family="Helvetica" clip-path="url(#mx-clip-454-106-22-30-0)" font-size="12px"><text x="455.5" y="125.5">PK</text></g><path d="M 450 136 M 610 136 M 610 162 M 450 162" fill="none" stroke="#000000" stroke-miterlimit="10" pointer-events="none"/><g fill="#000000" font-family="Helvetica" clip-path="url(#mx-clip-484-141-122-26-0)" font-size="12px"><text x="485.5" y="153.5">product_name</text></g><path d="M 450 136 M 480 136 L 480 162 M 450 162" fill="none" stroke="#000000" stroke-miterlimit="10" pointer-events="none"/><path d="M 390 69 L 410 69 Q 420 69 420 79 L 420 87 Q 420 95 420 105 L 420 113 Q 420 121 430 121 L 450 121" fill="none" stroke="#000000" stroke-miterlimit="10" pointer-events="none"/><ellipse cx="402" cy="69" rx="3" ry="3" fill="#ffffff" stroke="#000000" pointer-events="none"/><path d="M 390 73 L 398 69 L 390 65" fill="none" stroke="#000000" stroke-miterlimit="10" pointer-events="none"/><path d="M 446 125 L 446 117 M 442 125 L 442 117" fill="none" stroke="#000000" stroke-miterlimit="10" pointer-events="none"/></g></svg>